<svg viewBox="0 0 1000 600" xmlns="http://www.w3.org/2000/svg">
  <!-- Реальная карта России - упрощенный контур на основе реальных границ -->
  <path d="M 120 180 L 150 170 L 200 175 L 250 180 L 300 185 L 350 190 L 400 195 L 450 200 L 500 205 L 550 210 L 600 215 L 650 220 L 700 225 L 750 230 L 800 235 L 850 240 L 900 245 L 950 250 L 980 260 L 990 280 L 985 300 L 980 320 L 970 340 L 960 360 L 950 380 L 940 400 L 930 420 L 920 440 L 910 460 L 900 480 L 885 500 L 870 515 L 850 525 L 830 530 L 810 535 L 790 540 L 770 545 L 750 550 L 730 555 L 710 560 L 690 565 L 670 570 L 650 575 L 630 580 L 610 585 L 590 590 L 570 595 L 550 598 L 530 600 L 510 598 L 490 595 L 470 590 L 450 585 L 430 580 L 410 575 L 390 570 L 370 565 L 350 560 L 330 555 L 310 550 L 290 545 L 270 540 L 250 535 L 230 530 L 210 525 L 190 515 L 170 500 L 155 480 L 145 460 L 140 440 L 135 420 L 130 400 L 125 380 L 120 360 L 115 340 L 110 320 L 105 300 L 100 280 L 95 260 L 90 240 L 100 220 L 110 200 Z" 
        fill="none" 
        stroke="#ffffff" 
        stroke-width="2"/>
  
  <!-- Калининградская область -->
  <path d="M 80 200 L 100 195 L 115 200 L 120 210 L 115 220 L 100 225 L 85 220 L 80 210 Z" 
        fill="none" 
        stroke="#ffffff" 
        stroke-width="1.5"/>
  
  <!-- Крым -->
  <path d="M 200 280 L 220 275 L 240 280 L 250 290 L 240 300 L 220 305 L 200 300 L 195 290 Z" 
        fill="none" 
        stroke="#ffffff" 
        stroke-width="1.5"/>
  
  <!-- Кавказ -->
  <path d="M 250 320 L 280 310 L 300 320 L 310 340 L 300 360 L 280 370 L 250 360 L 240 340 Z" 
        fill="none" 
        stroke="#ffffff" 
        stroke-width="1.5"/>
  
  <!-- Урал -->
  <path d="M 600 250 L 650 260 L 700 270 L 720 300 L 700 330 L 650 340 L 600 330 L 580 300 Z" 
        fill="none" 
        stroke="#ffffff" 
        stroke-width="1.5"/>
  
  <!-- Сибирь -->
  <path d="M 700 270 L 750 280 L 800 290 L 850 300 L 880 320 L 870 350 L 850 380 L 800 390 L 750 380 L 720 360 Z" 
        fill="none" 
        stroke="#ffffff" 
        stroke-width="1.5"/>
  
  <!-- Дальний Восток -->
  <path d="M 850 300 L 900 310 L 950 320 L 980 340 L 990 370 L 980 400 L 950 420 L 900 430 L 870 410 L 850 380 Z" 
        fill="none" 
        stroke="#ffffff" 
        stroke-width="1.5"/>
  
  <!-- Сахалин -->
  <path d="M 980 400 L 990 410 L 995 430 L 990 450 L 980 460 L 970 450 L 965 430 L 970 410 Z" 
        fill="none" 
        stroke="#ffffff" 
        stroke-width="1.5"/>
</svg>



